<?xml version="1.0" standalone="no"?>
<!DOCTYPE svg PUBLIC "-//W3C//DTD SVG 20010904//EN"
 "http://www.w3.org/TR/2001/REC-SVG-20010904/DTD/svg10.dtd">
<svg version="1.0" xmlns="http://www.w3.org/2000/svg"
 width="300.000000pt" height="300.000000pt" viewBox="0 0 300.000000 300.000000"
 preserveAspectRatio="xMidYMid meet">
<metadata>
Created by potrace 1.11, written by Peter Selinger 2001-2013
</metadata>
<g transform="translate(0.000000,300.000000) scale(0.100000,-0.100000)"
fill="#000000" stroke="none">
<path d="M1361 2462 c-12 -23 4 -52 29 -52 25 0 41 30 29 53 -13 22 -46 22
-58 -1z"/>
<path d="M1576 2464 c-22 -21 -3 -56 27 -52 37 5 33 67 -5 68 -4 0 -14 -7 -22
-16z"/>
<path d="M1970 2364 c0 -8 17 -22 38 -30 194 -79 389 -227 498 -381 49 -67
116 -204 133 -270 7 -24 16 -43 21 -43 36 0 -28 174 -109 298 -121 183 -313
336 -531 422 -43 17 -50 18 -50 4z"/>
<path d="M930 2324 c-224 -107 -414 -289 -510 -489 -49 -101 -69 -170 -53
-186 9 -9 15 0 23 32 18 68 85 205 134 272 96 135 269 276 428 349 37 18 68
38 68 45 0 19 -7 17 -90 -23z"/>
<path d="M865 1998 c4 -18 18 -70 31 -116 13 -45 24 -85 24 -88 0 -3 12 -4 27
-2 24 3 31 11 51 68 13 35 24 66 26 67 2 2 13 -28 25 -67 20 -61 25 -70 46
-70 30 0 36 12 64 120 12 47 25 93 27 103 4 13 -1 17 -24 17 -29 0 -30 -2 -42
-67 -19 -101 -24 -105 -50 -29 -18 56 -25 66 -45 66 -20 0 -26 -10 -46 -72
l-23 -73 -20 88 c-19 85 -20 87 -49 87 -27 0 -28 -2 -22 -32z"/>
<path d="M1237 1919 c-26 -61 -47 -115 -47 -120 0 -5 11 -9 25 -9 18 0 28 7
35 25 9 22 15 25 64 25 49 0 54 -2 60 -25 5 -20 13 -25 36 -25 l30 0 -21 53
c-11 28 -34 82 -51 120 -27 58 -34 67 -58 67 -24 0 -30 -9 -73 -111z m112 -31
c1 -5 -15 -8 -34 -8 -40 0 -41 6 -19 58 l16 37 18 -40 c10 -22 19 -43 19 -47z"/>
<path d="M1430 2005 c0 -22 4 -25 40 -25 l40 0 0 -95 c0 -95 0 -95 25 -95 25
0 25 0 25 94 l0 95 38 3 c30 2 38 7 40 26 3 22 2 22 -102 22 l-106 0 0 -25z"/>
<path d="M1704 2011 c-64 -39 -72 -142 -14 -193 25 -23 40 -28 84 -28 69 0 85
6 79 30 -4 16 -12 18 -53 13 -61 -7 -90 17 -90 77 0 59 29 84 87 76 34 -4 45
-2 50 10 3 9 0 20 -8 25 -25 15 -102 10 -135 -10z"/>
<path d="M1900 1910 l0 -120 30 0 c29 0 30 1 30 50 l0 50 45 0 45 0 0 -50 c0
-49 1 -50 30 -50 l30 0 0 120 0 120 -30 0 c-29 0 -30 -2 -30 -45 l0 -45 -45 0
-45 0 0 45 c0 43 -1 45 -30 45 l-30 0 0 -120z"/>
<path d="M1246 1483 c-4 -43 -8 -97 -11 -120 -4 -42 -4 -43 25 -43 l29 0 3 78
3 77 30 -62 c40 -84 61 -85 95 -3 14 33 28 60 33 60 4 0 7 -34 7 -75 l0 -75
29 0 c28 0 29 2 26 33 -3 17 -7 71 -11 120 l-6 87 -28 0 c-24 0 -31 -8 -60
-72 l-32 -73 -36 73 c-32 63 -40 72 -63 72 -27 0 -27 -1 -33 -77z"/>
<path d="M1550 1553 c0 -4 18 -37 40 -74 31 -52 40 -78 40 -113 0 -44 1 -46
30 -46 29 0 30 1 30 48 0 38 9 60 45 117 l45 70 -28 3 c-15 2 -30 -2 -35 -10
-4 -7 -19 -31 -31 -52 l-24 -40 -28 52 c-24 43 -34 52 -56 52 -16 0 -28 -3
-28 -7z"/>
<path d="M360 1242 c0 -23 44 -134 81 -200 72 -134 176 -249 316 -349 71 -50
225 -133 248 -133 35 0 8 23 -84 70 -248 127 -431 323 -508 542 -16 43 -34 78
-40 78 -7 0 -13 -4 -13 -8z"/>
<path d="M2622 1183 c-83 -241 -284 -448 -556 -574 -53 -24 -96 -50 -96 -57 0
-17 21 -11 117 33 264 121 479 347 563 590 23 68 24 75 7 75 -6 0 -23 -30 -35
-67z"/>
<path d="M990 1000 l0 -150 35 0 35 0 0 68 1 67 63 -67 c56 -60 68 -68 100
-68 34 0 36 2 26 20 -6 11 -37 49 -70 83 l-59 62 67 68 66 67 -42 0 c-39 0
-48 -5 -97 -57 l-54 -58 -1 58 0 57 -35 0 -35 0 0 -150z"/>
<path d="M1310 1000 l0 -150 35 0 35 0 0 150 0 150 -35 0 -35 0 0 -150z"/>
<path d="M1460 1000 l0 -150 116 0 115 0 -3 28 c-3 27 -3 27 -81 27 l-77 0 0
38 0 37 65 0 65 0 0 30 0 30 -65 0 -65 0 0 30 0 30 70 0 c68 0 70 1 70 25 l0
25 -105 0 -105 0 0 -150z"/>
<path d="M1716 1128 c4 -13 29 -75 56 -138 28 -63 52 -121 55 -127 3 -7 22
-13 42 -13 l36 0 42 98 c24 53 52 121 63 150 l20 52 -38 0 -37 0 -39 -105
c-21 -58 -42 -105 -46 -105 -4 0 -25 47 -46 105 l-39 105 -38 0 c-35 0 -38 -2
-31 -22z"/>
<path d="M1361 472 c-12 -23 4 -52 29 -52 26 0 45 36 29 56 -16 19 -46 18 -58
-4z"/>
<path d="M1571 472 c-15 -28 8 -57 38 -47 17 5 21 13 19 33 -4 34 -42 43 -57
14z"/>
</g>
</svg>
